<mxfile host="app.diagrams.net" modified="2024-03-06T12:36:28.080Z" agent="Mozilla/5.0 (Windows NT 10.0; Win64; x64; rv:123.0) Gecko/20100101 Firefox/123.0" etag="pwZwFQqGKh-8XUvwAFpQ" version="24.0.2" type="github">
  <diagram name="Page-1" id="e3a06f82-3646-2815-327d-82caf3d4e204">
    <mxGraphModel dx="1434" dy="746" grid="1" gridSize="10" guides="1" tooltips="1" connect="1" arrows="1" fold="1" page="1" pageScale="1.5" pageWidth="1169" pageHeight="826" background="none" math="0" shadow="0">
      <root>
        <mxCell id="0" style=";html=1;" />
        <mxCell id="1" style=";html=1;" parent="0" />
        <mxCell id="JqTrbul99vAAQZtvC8n6-17" value="Infrastructure FCD" style="whiteSpace=wrap;html=1;fillColor=#dae8fc;fontSize=14;strokeColor=#6c8ebf;verticalAlign=top;" vertex="1" parent="1">
          <mxGeometry x="825.25" y="110" width="180" height="670" as="geometry" />
        </mxCell>
        <mxCell id="6a7d8f32e03d9370-59" value="&lt;div&gt;Serveur Coté Client&lt;/div&gt;" style="whiteSpace=wrap;html=1;fillColor=#EDEDED;fontSize=14;strokeColor=none;verticalAlign=top;" parent="1" vertex="1">
          <mxGeometry x="568.25" y="394.5" width="180" height="210" as="geometry" />
        </mxCell>
        <mxCell id="6a7d8f32e03d9370-57" value="&lt;div&gt;Infrastructure Client&lt;/div&gt;" style="whiteSpace=wrap;html=1;fillColor=#FFD470;gradientColor=none;fontSize=14;strokeColor=none;verticalAlign=top;" parent="1" vertex="1">
          <mxGeometry x="179" y="98" width="308" height="680" as="geometry" />
        </mxCell>
        <mxCell id="6a7d8f32e03d9370-2" value="&lt;div style=&quot;font-size: 12px;&quot;&gt;&lt;font style=&quot;font-size: 12px;&quot;&gt;Wazuh-Agent&lt;/font&gt;&lt;/div&gt;&lt;div style=&quot;font-size: 12px;&quot;&gt;&lt;font style=&quot;font-size: 12px;&quot;&gt;&lt;br&gt;&lt;/font&gt;&lt;/div&gt;" style="verticalLabelPosition=bottom;aspect=fixed;html=1;verticalAlign=top;strokeColor=none;shape=mxgraph.citrix.laptop_2;fillColor=#66B2FF;gradientColor=#0066CC;fontSize=14;" parent="1" vertex="1">
          <mxGeometry x="236.4999999999999" y="320" width="116" height="86.5" as="geometry" />
        </mxCell>
        <mxCell id="6a7d8f32e03d9370-3" value="Wazuh-Agent" style="verticalLabelPosition=bottom;aspect=fixed;html=1;verticalAlign=top;strokeColor=none;shape=mxgraph.citrix.desktop;fillColor=#66B2FF;gradientColor=#0066CC;fontSize=12;" parent="1" vertex="1">
          <mxGeometry x="249.99999999999994" y="159.99999999999994" width="89" height="98" as="geometry" />
        </mxCell>
        <mxCell id="6a7d8f32e03d9370-62" value="Wazuh Coté client" style="text;strokeColor=none;fillColor=none;html=1;fontSize=24;fontStyle=1;verticalAlign=middle;align=center;" parent="1" vertex="1">
          <mxGeometry x="179" y="40" width="861" height="40" as="geometry" />
        </mxCell>
        <mxCell id="JqTrbul99vAAQZtvC8n6-1" value="&lt;div&gt;Wazuh Server (Worker)&lt;/div&gt;" style="verticalLabelPosition=bottom;aspect=fixed;html=1;verticalAlign=top;strokeColor=none;shape=mxgraph.citrix.proxy_server;fillColor=#66B2FF;gradientColor=#0066CC;fontSize=14;" vertex="1" parent="1">
          <mxGeometry x="620" y="454.5" width="76.5" height="90" as="geometry" />
        </mxCell>
        <mxCell id="JqTrbul99vAAQZtvC8n6-4" value="" style="endArrow=classic;startArrow=classic;html=1;rounded=0;fontColor=#007FFF;strokeColor=#007FFF;" edge="1" parent="1" source="6a7d8f32e03d9370-3" target="JqTrbul99vAAQZtvC8n6-1">
          <mxGeometry width="50" height="50" relative="1" as="geometry">
            <mxPoint x="338.99999999999994" y="258.99999999999994" as="sourcePoint" />
            <mxPoint x="409.7106781186547" y="208.99999999999994" as="targetPoint" />
            <Array as="points">
              <mxPoint x="540" y="210" />
              <mxPoint x="540" y="500" />
            </Array>
          </mxGeometry>
        </mxCell>
        <mxCell id="JqTrbul99vAAQZtvC8n6-6" value="" style="endArrow=classic;startArrow=classic;html=1;rounded=0;exitX=1.017;exitY=0.656;exitDx=0;exitDy=0;exitPerimeter=0;fontColor=#007FFF;strokeColor=#007FFF;" edge="1" parent="1" source="6a7d8f32e03d9370-2" target="JqTrbul99vAAQZtvC8n6-1">
          <mxGeometry width="50" height="50" relative="1" as="geometry">
            <mxPoint x="510" y="398.5" as="sourcePoint" />
            <mxPoint x="560" y="348.5" as="targetPoint" />
            <Array as="points">
              <mxPoint x="540" y="377" />
              <mxPoint x="540" y="500" />
            </Array>
          </mxGeometry>
        </mxCell>
        <mxCell id="JqTrbul99vAAQZtvC8n6-8" value="Sans Agent" style="verticalLabelPosition=bottom;aspect=fixed;html=1;verticalAlign=top;strokeColor=none;shape=mxgraph.citrix.switch;fillColor=#66B2FF;gradientColor=#0066CC;fontSize=12;" vertex="1" parent="1">
          <mxGeometry x="248.5" y="656" width="92" height="41.5" as="geometry" />
        </mxCell>
        <mxCell id="JqTrbul99vAAQZtvC8n6-10" value="" style="endArrow=classic;startArrow=classic;html=1;rounded=0;entryX=-0.013;entryY=0.494;entryDx=0;entryDy=0;entryPerimeter=0;fontColor=#007FFF;strokeColor=#007FFF;" edge="1" parent="1" source="JqTrbul99vAAQZtvC8n6-12" target="JqTrbul99vAAQZtvC8n6-1">
          <mxGeometry width="50" height="50" relative="1" as="geometry">
            <mxPoint x="324.029" y="525.98" as="sourcePoint" />
            <mxPoint x="890" y="510" as="targetPoint" />
            <Array as="points">
              <mxPoint x="540" y="526" />
              <mxPoint x="540" y="499" />
            </Array>
          </mxGeometry>
        </mxCell>
        <mxCell id="JqTrbul99vAAQZtvC8n6-12" value="Wazuh-Agent" style="verticalLabelPosition=bottom;sketch=0;aspect=fixed;html=1;verticalAlign=top;strokeColor=none;align=center;outlineConnect=0;shape=mxgraph.citrix.directory_server;" vertex="1" parent="1">
          <mxGeometry x="262" y="484.5" width="65" height="88.5" as="geometry" />
        </mxCell>
        <mxCell id="JqTrbul99vAAQZtvC8n6-15" value="" style="endArrow=classic;html=1;rounded=0;exitX=1.027;exitY=0.578;exitDx=0;exitDy=0;exitPerimeter=0;entryX=-0.039;entryY=0.756;entryDx=0;entryDy=0;entryPerimeter=0;strokeColor=#00FF00;" edge="1" parent="1" source="JqTrbul99vAAQZtvC8n6-8" target="JqTrbul99vAAQZtvC8n6-1">
          <mxGeometry width="50" height="50" relative="1" as="geometry">
            <mxPoint x="840" y="440" as="sourcePoint" />
            <mxPoint x="610" y="360" as="targetPoint" />
            <Array as="points">
              <mxPoint x="580" y="677" />
              <mxPoint x="580" y="523" />
            </Array>
          </mxGeometry>
        </mxCell>
        <mxCell id="JqTrbul99vAAQZtvC8n6-16" value="&lt;div&gt;Wazuh Server (Master)&lt;/div&gt;" style="verticalLabelPosition=bottom;aspect=fixed;html=1;verticalAlign=top;strokeColor=none;shape=mxgraph.citrix.proxy_server;fillColor=#66B2FF;gradientColor=#0066CC;fontSize=14;" vertex="1" parent="1">
          <mxGeometry x="877" y="450" width="76.5" height="90" as="geometry" />
        </mxCell>
        <mxCell id="JqTrbul99vAAQZtvC8n6-18" value="" style="endArrow=classic;startArrow=classic;html=1;rounded=0;fillColor=#e1d5e7;strokeColor=#FF621F;entryX=-0.026;entryY=0.256;entryDx=0;entryDy=0;entryPerimeter=0;exitX=0.928;exitY=0.194;exitDx=0;exitDy=0;exitPerimeter=0;" edge="1" parent="1" source="JqTrbul99vAAQZtvC8n6-1" target="JqTrbul99vAAQZtvC8n6-16">
          <mxGeometry width="50" height="50" relative="1" as="geometry">
            <mxPoint x="690" y="187" as="sourcePoint" />
            <mxPoint x="870" y="210" as="targetPoint" />
            <Array as="points">
              <mxPoint x="760" y="472" />
            </Array>
          </mxGeometry>
        </mxCell>
        <mxCell id="JqTrbul99vAAQZtvC8n6-20" value="&lt;div&gt;Wazuh Indexer&lt;/div&gt;" style="verticalLabelPosition=bottom;aspect=fixed;html=1;verticalAlign=top;strokeColor=none;shape=mxgraph.citrix.proxy_server;fillColor=#66B2FF;gradientColor=#0066CC;fontSize=14;" vertex="1" parent="1">
          <mxGeometry x="877" y="640" width="76.5" height="90" as="geometry" />
        </mxCell>
        <mxCell id="JqTrbul99vAAQZtvC8n6-21" value="" style="endArrow=classic;startArrow=classic;html=1;rounded=0;fillColor=#e1d5e7;strokeColor=#FF99FF;entryX=-0.052;entryY=0.539;entryDx=0;entryDy=0;entryPerimeter=0;exitX=0.915;exitY=0.394;exitDx=0;exitDy=0;exitPerimeter=0;" edge="1" parent="1" source="JqTrbul99vAAQZtvC8n6-1" target="JqTrbul99vAAQZtvC8n6-20">
          <mxGeometry width="50" height="50" relative="1" as="geometry">
            <mxPoint x="700" y="260" as="sourcePoint" />
            <mxPoint x="885" y="197" as="targetPoint" />
            <Array as="points">
              <mxPoint x="770" y="490" />
              <mxPoint x="770" y="690" />
            </Array>
          </mxGeometry>
        </mxCell>
        <mxCell id="JqTrbul99vAAQZtvC8n6-22" value="" style="verticalLabelPosition=bottom;sketch=0;aspect=fixed;html=1;verticalAlign=top;strokeColor=none;align=center;outlineConnect=0;shape=mxgraph.citrix.desktop_web;" vertex="1" parent="1">
          <mxGeometry x="877" y="190" width="76.5" height="90" as="geometry" />
        </mxCell>
      </root>
    </mxGraphModel>
  </diagram>
</mxfile>
